<?xml version="1.0" encoding="UTF-8"?>
<!DOCTYPE svg PUBLIC "-//W3C//DTD SVG 1.1//EN" "http://www.w3.org/Graphics/SVG/1.1/DTD/svg11.dtd">
<!-- Creator: CorelDRAW X7 -->
<svg xmlns="http://www.w3.org/2000/svg" xml:space="preserve" width="1052px" height="512px" version="1.1" style="shape-rendering:geometricPrecision; text-rendering:geometricPrecision; image-rendering:optimizeQuality; fill-rule:evenodd; clip-rule:evenodd"
viewBox="0 0 702 342"
 xmlns:xlink="http://www.w3.org/1999/xlink">
 <defs>
  <style type="text/css">
   <![CDATA[
    .fil0 {fill:black;fill-opacity:0.050980}
   ]]>
  </style>
 </defs>
 <g id="Capa_x0020_1">
  <metadata id="CorelCorpID_0Corel-Layer"/>
  <path class="fil0" d="M555 275l0 -46 46 -27 47 27 0 55 -46 27 -47 -27 0 -9zm-100 3l0 -49 46 -27 47 27 0 55 -47 27 -46 -27 0 -6zm-100 -49l46 -27 47 27 0 55 -47 27 -46 -27 0 -55zm-101 0l47 -27 47 27 0 55 -47 27 -47 -27 0 -55zm-100 45l0 -45 47 -27 47 27c0,17 0,37 0,55l-47 27 -47 -27 0 -10zm-100 -40l0 -5 47 -27 46 27 1 9 0 37 0 9 -47 27 -47 -27 0 -50zm551 -91l47 -26 46 27 0 54 -46 27 -47 -27 0 -55zm-100 51l0 -51 46 -26 47 27 0 54 -46 27 -47 -27 0 -4zm-54 -77l47 26 0 55 -47 27 -46 -27 0 -54 46 -27zm-100 0l47 26 0 55 -47 27 -47 -27 1 -54 46 -27zm-147 26l47 -26 47 27 0 54 -47 27 -47 -27 0 -55zm-53 -26l47 26 0 55 -47 27 -47 -27 0 -54 47 -27zm-100 0l46 26 0 55 -46 27 -47 -27 0 -54 47 -27zm551 -86l46 27 0 55 -47 27 -46 -27 0 -55 47 -27zm-101 0l47 27 0 55 -47 27 -46 -27 0 -55 46 -27zm-100 0l47 27 0 55 -47 27 -46 -27 0 -55 46 -27zm-100 0l47 27 0 55 -47 27 -47 -27 0 -55 47 -27zm-100 0l47 27 0 55 -47 27 -47 -27 0 -55 47 -27zm-100 0l47 27 -1 55 -46 27 -47 -27 0 -55 47 -27zm-101 0l47 27 0 55c-9,4 -42,25 -47,27l0 62c4,1 19,11 24,13 7,4 16,11 23,14l0 55c-9,4 -42,25 -47,27l0 31 4 0 0 -28 47 -27 46 27 0 28 7 0 0 -28 47 -27 47 28 0 27 6 0 0 -28 47 -27 47 27 0 28 6 0 0 -28 47 -27 47 28 0 27 7 0 0 -28 46 -27 47 27 0 28 7 0 0 -28 46 -27 47 28 0 27 7 0 0 -28 47 -27 46 28 0 27 4 0 0 -31 -47 -27 0 -55c9,-4 42,-26 47,-27l0 -62c-5,-1 -38,-23 -47,-27l0 -55c8,-4 16,-9 24,-14 4,-2 20,-12 23,-13l0 -31 -4 0 0 27 -46 27 -47 -26 0 -28 -7 0 0 27 -47 27 -46 -27 0 -27 -7 0 0 27 -47 27 -46 -27 0 -27 -7 0 0 27 -47 27 -47 -26 0 -28 -6 0 0 27 -47 27 -47 -26 0 -28 -6 0 0 27 -47 27 -47 -27 0 -27 -7 0 0 27 -46 27 -47 -26 0 -28 -4 0 0 31z"/>
  <path class="fil0" d="M108 102l-3 0c-1,8 -8,8 -9,1 -9,-4 -2,-10 3,-14 1,3 -1,6 2,7 2,-2 1,-4 1,-7 5,2 10,8 6,13zm-22 -17l0 1c3,2 8,1 11,1 -3,5 -11,11 -16,5l0 -3c-5,0 -7,-1 -5,-7l5 -1c0,-8 12,-5 16,3 -3,0 -8,-1 -11,1zm19 -1c10,-13 16,-7 15,-3 5,1 8,2 6,8l-6 1c1,9 -13,3 -15,-3 3,0 7,1 10,-1l0 -1c-2,-2 -7,-1 -10,-1zm-8 -15c0,-8 7,-8 8,0 6,-1 8,7 -3,13 0,-4 1,-6 -2,-7 -1,2 -1,3 -1,7 -4,-2 -10,-8 -6,-13l4 0zm-28 -3l0 38 32 19 32 -19 0 -37c-5,-2 -30,-19 -32,-19 -3,0 -26,17 -32,18z"/>
  <path class="fil0" d="M250 175c0,3 -1,5 1,6 2,-1 2,-3 2,-6 7,2 11,14 2,12 0,8 -7,8 -9,1 -12,-5 3,-13 4,-13zm-13 -5l0 2c3,1 7,0 10,0 -1,3 -1,3 -3,4 -9,7 -13,3 -12,-1 -9,-1 -10,-8 -1,-9 0,-9 14,-2 16,3 -3,0 -7,0 -10,1zm33 -3c9,0 10,8 1,8 0,10 -13,4 -16,-3 3,0 8,1 10,0l1 -2c-3,-1 -8,-1 -11,-1 4,-8 18,-11 15,-2zm-23 -13c0,-7 7,-8 9,-1l1 1c0,0 0,0 0,0 8,3 0,11 -4,13 -1,-3 0,-5 -2,-6 -2,1 -1,3 -1,6 -5,-1 -10,-7 -7,-13l4 0zm-28 -2l0 38 32 18 32 -18 0 -38 -32 -18 -32 18z"/>
  <path class="fil0" d="M96 274c-9,-4 -2,-10 3,-14 1,3 -1,6 2,7 2,-2 1,-4 1,-7 5,2 10,8 6,13l-3 0c-1,8 -8,7 -9,1zm-15 -22c0,-8 12,-5 16,3 -3,0 -8,-1 -11,1l0 1c3,2 8,1 11,1 -3,5 -11,11 -16,5l1 -3c-6,0 -8,-1 -6,-7l5 -1zm24 3c10,-13 16,-7 15,-3 5,1 8,2 6,8l-6 1c1,9 -13,3 -15,-3 3,0 7,0 10,-1l0 -1c-2,-2 -7,-1 -10,-1zm-8 -15c0,-8 7,-8 8,0 6,-1 8,6 -3,13 0,-4 1,-6 -2,-7 -1,2 -1,3 -1,6 -4,-1 -10,-7 -6,-12l4 0zm-28 35l32 19 32 -19 0 -37 -32 -19 -32 18 0 38z"/>
  <path class="fil0" d="M146 188c-7,0 -6,-7 3,-13 0,3 0,4 1,6l1 0c2,-1 1,-4 1,-6 3,1 5,3 7,5 2,3 2,4 0,8l-4 0c-1,7 -7,8 -9,0zm9 -19c4,-8 17,-10 15,-2l6 1c2,7 -1,7 -5,8 1,6 -11,6 -16,-4 3,0 7,1 10,0l0 -2c-3,-1 -7,-1 -10,-1zm-18 3c2,1 7,0 10,0 -4,9 -18,11 -15,3l-6 -2c-1,-2 -1,-3 0,-5l5 -2c-1,-7 12,-4 16,3 -3,0 -8,0 -11,1l1 2zm10 -18c0,-7 7,-8 8,0 2,0 4,0 5,2 2,5 -5,10 -8,11 0,-3 1,-5 -1,-6 -3,0 -2,3 -2,6 -4,-1 -10,-7 -6,-13l4 0zm-28 36l32 18 32 -18 0 -38 -32 -18 -32 18 0 38z"/>
  <path class="fil0" d="M352 181c1,-2 0,-3 1,-6 4,2 10,6 6,13l-4 -1c0,8 -7,8 -8,1 -12,-5 2,-13 3,-13 0,3 -1,5 2,6zm3 -12c2,-4 11,-11 16,-5l-1 3c6,0 8,2 6,8l-5 1c1,7 -12,4 -16,-4 3,0 8,1 11,0l-1 -2c-2,-1 -7,-1 -10,-1zm-18 3c3,1 7,0 10,0 -2,6 -10,11 -16,6l1 -3c-6,0 -8,-2 -6,-8l6 -1c-1,-4 5,-5 8,-4 3,2 6,5 7,7 -3,0 -7,0 -10,1l0 2zm10 -18c1,-7 7,-8 9,0 1,0 3,0 4,2 2,5 -4,9 -7,11 0,-3 1,-5 -2,-7 -2,2 -1,4 -1,7 -2,0 -11,-6 -6,-13l3 0zm-28 -2l0 38c5,2 31,18 32,18 2,0 28,-16 32,-18l0 -38c-4,-2 -30,-18 -32,-18 -1,0 -27,16 -32,18z"/>
  <path class="fil0" d="M650 175c0,3 -1,6 2,6 2,-2 1,-3 1,-6 8,3 12,14 3,12 -1,8 -8,8 -9,1 -3,-1 -6,-2 -4,-7 1,-2 5,-5 7,-6zm-18 -9c0,-9 13,-2 16,3 -4,0 -8,0 -11,1l0 2c3,1 7,0 11,0 -4,9 -18,11 -16,3 -9,-1 -9,-8 0,-9zm23 3c5,-8 18,-11 16,-2 9,0 9,8 0,8 1,7 -9,7 -16,-3 4,0 8,1 11,0l0 -2c-3,-1 -7,-1 -11,-1zm-7 -15c0,-7 7,-8 8,-1 0,0 8,2 4,8 -2,3 -4,5 -7,6 0,-3 1,-4 -1,-6 -3,0 -2,2 -2,6 -4,-2 -10,-7 -6,-13l4 0zm-29 36l33 18 32 -18 0 -38 -32 -18 -33 18 0 38z"/>
  <path class="fil0" d="M552 181c2,-2 1,-3 1,-6 4,2 10,7 6,13l-4 0c0,7 -6,8 -8,0 -10,-1 -2,-11 3,-13 0,3 -1,6 2,6zm3 -12c5,-8 18,-10 16,-2l6 1c2,7 -1,7 -6,8 0,2 0,3 -2,4 -1,0 -3,0 -3,0 -2,0 -1,0 -3,-1 -3,-1 -6,-4 -8,-7 4,0 8,1 11,0l0 -2c-3,-1 -7,-1 -11,-1zm-18 3c3,1 7,0 11,0 -5,10 -18,10 -16,3l-6 -2c-1,-2 -1,-3 0,-5l6 -2c-2,-7 11,-4 16,3 -4,0 -11,-1 -11,3zm10 -18c1,-7 8,-8 9,0 1,0 3,0 4,2 2,5 -4,10 -7,11 0,-3 1,-5 -1,-6 -3,0 -2,3 -2,6 -2,0 -11,-6 -6,-13l3 0zm-28 -2l0 38 32 18 33 -18 0 -38 -32 -18 -33 18z"/>
  <path class="fil0" d="M199 260c0,3 -1,6 2,7 2,-2 1,-4 1,-7 5,1 10,8 7,13l-4 0c0,3 0,5 -4,5 -4,1 -4,-2 -5,-5 -9,0 -2,-11 3,-13zm-18 -8c0,-9 13,-3 16,3 -3,0 -8,-1 -11,0l1 2c2,1 7,1 10,1 -3,7 -17,11 -15,2 -9,0 -10,-8 -1,-8zm39 0c6,1 8,2 6,8l-5 1c0,9 -13,3 -16,-3 3,0 8,0 10,-1 1,-3 -2,-2 -10,-2 4,-8 18,-11 15,-3zm-23 -12c1,-8 8,-8 9,-1l3 1c3,5 -2,11 -7,12 0,-3 1,-4 -1,-6 -3,1 -1,3 -2,7 -4,-3 -9,-8 -6,-13l4 0zm-28 35l32 19 32 -19 0 -37 -32 -19 -32 18 0 38z"/>
  <path class="fil0" d="M199 89c0,3 -1,6 2,7 2,-2 1,-4 1,-7 5,2 10,8 7,13l-4 0c0,3 0,5 -4,6 -4,0 -4,-3 -5,-6 -9,0 -2,-11 3,-13zm-18 -8c0,-9 13,-3 16,3 -3,0 -8,-1 -11,1l1 1c2,2 7,1 10,1 -3,7 -17,11 -15,2 -9,0 -10,-8 -1,-8zm39 0c6,1 8,2 6,8l-5 1c0,9 -13,3 -16,-3 3,0 8,1 10,-1 1,-3 -2,-2 -10,-2 4,-8 18,-11 15,-3zm-23 -12c1,-8 8,-8 9,0l3 0c3,5 -2,11 -7,13 0,-4 1,-5 -1,-7 -3,1 -1,3 -2,7 -4,-3 -9,-7 -6,-13l4 0zm-28 35l32 19 32 -19 0 -37 -32 -19 -32 19 0 37z"/>
  <path class="fil0" d="M450 175c0,3 -1,5 2,6 1,-2 1,-3 1,-6 2,0 4,3 6,5 2,2 2,4 0,7l-4 1c0,7 -7,7 -8,0 -1,0 -7,-1 -4,-7 1,-2 4,-5 7,-6zm-18 -9c0,-9 12,-2 15,3 -3,0 -7,0 -10,1l0 2c3,1 7,0 11,0 -5,9 -18,11 -16,3 -5,0 -8,-2 -6,-7l6 -2zm23 3c1,-2 4,-5 7,-6 4,-2 5,-1 9,0l0 4c5,0 7,2 6,7l-6 2c1,7 -12,5 -16,-4 4,0 8,1 11,0l0 -2c-3,-1 -8,-1 -11,-1zm-8 -15c1,-3 1,-5 5,-5 3,0 3,2 4,5 9,1 2,11 -3,13 0,-3 1,-6 -2,-6 -2,1 -1,3 -1,6 -5,-2 -10,-7 -6,-13l3 0zm-28 -2l0 38 32 18 32 -18 1 -38 -33 -18 -32 18z"/>
  <path class="fil0" d="M49 175c0,3 -1,5 2,6 2,-2 1,-3 1,-6 3,1 5,3 6,5 3,3 3,4 0,7l-3 1c-1,7 -7,7 -9,0 -1,0 -7,-1 -4,-7 1,-2 5,-5 7,-6zm-18 -9c0,-9 12,-2 16,3 -3,0 -8,0 -11,1 0,4 7,2 11,2 -2,4 -5,6 -8,8 -4,1 -9,0 -8,-5 -8,-1 -9,-8 0,-9zm24 3c1,-2 4,-5 6,-6 4,-2 5,-1 9,0l0 4c5,0 8,2 6,7l-6 2c2,7 -12,4 -15,-4 3,0 7,1 10,0l0 -2c-3,-1 -7,-1 -10,-1zm-8 -15c0,-3 1,-5 4,-5 4,0 4,2 5,5 5,0 5,4 3,7 -1,2 -4,5 -7,6 0,-3 1,-7 -2,-6 -1,1 -1,0 -1,3 0,0 0,2 0,3 -4,-2 -10,-7 -6,-13l4 0zm-28 -2l0 38 32 18 32 -18 0 -38 -32 -18 -32 18z"/>
  <path class="fil0" d="M400 260c0,4 -1,5 1,7 2,-1 1,0 2,-3 0,-1 0,-3 0,-4 4,2 9,8 6,13l-4 0c0,8 -7,8 -8,0 -7,0 -7,-7 3,-13zm21 -8c5,1 7,2 5,8l-5 1c1,8 -12,4 -16,-3 3,0 8,1 11,-1 -1,-3 -1,-2 -4,-2 -2,0 -5,0 -7,0 2,-5 11,-11 16,-5l0 2zm-24 3c-3,0 -7,-1 -10,0l0 2c3,1 7,1 10,1 -4,9 -17,10 -15,2 -3,0 -6,0 -7,-4 0,-4 3,-4 7,-5 -2,-7 12,-4 15,4zm0 -15c1,-7 7,-8 9,-1 9,1 2,11 -3,14 0,-4 1,-6 -2,-7 -2,2 -1,3 -1,6 -7,-1 -12,-14 -3,-12zm-28 -2l0 37 32 19 32 -19 0 -38 -32 -18 -32 19z"/>
  <path class="fil0" d="M509 102l-4 0c0,8 -7,8 -8,1 -12,-5 2,-13 3,-14 0,3 -1,6 2,7 1,-2 1,-4 1,-7 5,2 9,8 6,13zm-27 -21c0,-5 4,-6 8,-4 3,2 6,4 8,7l-11 0 0 3 10 0c-2,5 -10,11 -15,5l0 -3c-5,0 -8,-1 -6,-7l6 -1zm23 3c4,-8 18,-11 16,-3 5,1 8,2 6,8l-6 1c0,9 -13,4 -16,-3 4,0 8,1 11,-1 0,-3 -3,-2 -11,-2zm-8 -15c1,-8 8,-8 9,0 4,-1 6,3 4,7 -2,2 -5,4 -7,6 0,-4 1,-6 -2,-7 -1,1 -1,-1 -1,2 0,1 0,4 0,5 -4,-2 -10,-8 -6,-13l3 0zm-28 -3l0 38 32 19 32 -19 1 -37c-5,-2 -31,-19 -33,-19 -2,0 -26,17 -32,18z"/>
  <path class="fil0" d="M400 89c0,4 -1,5 1,7 2,-1 1,1 2,-7 4,2 9,8 6,13l-4 0c0,3 0,5 -4,6 -4,0 -4,-3 -4,-6 -7,0 -7,-7 3,-13zm5 -5c2,-5 11,-11 16,-5l0 2c5,1 7,2 6,8l-6 1c1,8 -12,4 -16,-3 3,0 8,1 11,-1 -1,-3 -2,-2 -11,-2zm-18 2c3,2 7,1 10,1 -4,9 -17,10 -15,3 -5,-1 -8,-2 -6,-8l6 -1c-2,-8 12,-5 15,3 -3,0 -7,-1 -10,1l0 1zm10 -17c1,-7 7,-8 9,0 9,0 2,10 -3,13 0,-4 1,-6 -2,-7 -2,2 -1,3 -1,7 -7,-2 -12,-15 -3,-13zm-28 -2l0 37 32 19 32 -19 0 -37 -32 -19 -32 19z"/>
  <path class="fil0" d="M299 89c1,3 0,6 3,7 1,-2 0,-4 1,-7 4,3 10,7 6,13l-4 0c0,8 -7,8 -9,0 -6,0 -6,-7 3,-13zm-18 -8c0,-10 13,-3 16,3l-10 0 0 3 10 0c-2,5 -10,11 -16,5l1 -3c-6,0 -8,-1 -6,-7l5 -1zm24 3c4,-9 18,-11 15,-3 6,1 8,2 6,8l-5 1c1,5 -5,5 -8,4 -3,-1 -6,-4 -8,-7l11 0c0,-4 -2,-3 -11,-3zm-8 -15c1,-8 8,-8 9,0 4,0 6,3 3,7 -1,2 -4,4 -6,6 -1,-4 0,-5 -1,-7 -4,1 -2,3 -3,7 -2,-1 -5,-5 -6,-7 -2,-3 0,-8 4,-6zm-28 35l32 19 32 -19 0 -37 -32 -19 -32 18 0 38z"/>
  <path class="fil0" d="M299 260c1,3 0,6 3,7 1,-2 0,-4 1,-7 4,3 10,6 6,13l-4 0c0,7 -7,8 -9,0 -4,0 -5,-3 -3,-7 1,-2 4,-5 6,-6zm-18 -8c0,-10 13,-3 16,3l-10 0 0 3 10 0c-2,5 -10,11 -16,5l1 -3c-6,0 -8,-1 -6,-7l5 -1zm24 3c4,-9 18,-11 15,-3 6,1 8,2 6,8l-5 1c1,6 -11,6 -16,-3l11 -1c0,-3 -2,-2 -11,-2zm-8 -15c1,-8 8,-8 9,-1 4,1 6,4 3,8 -1,2 -4,4 -6,6 -1,-4 0,-5 -1,-7 -4,1 -2,3 -3,7 -10,-6 -8,-15 -2,-13zm-28 35l32 19 32 -19 0 -37 -32 -19 -32 18 0 38z"/>
  <path class="fil0" d="M509 273l-4 0c0,8 -7,7 -8,1 -12,-5 2,-13 3,-14 0,3 -1,6 2,7 1,-2 1,-4 1,-7 5,2 9,8 6,13zm-27 -21c0,-7 11,-6 16,3l-11 0 0 3 10 0c-2,5 -10,11 -15,5l0 -3c-5,0 -8,-1 -6,-7l6 -1zm23 3c4,-8 18,-11 16,-3 5,1 8,2 6,8l-6 1c0,5 -5,5 -9,4 -2,-1 -6,-5 -7,-7 4,0 8,0 11,-1 0,-3 -3,-2 -11,-2zm-8 -15c1,-3 1,-6 5,-6 3,0 4,3 4,6 6,-1 7,7 -3,13 0,-4 1,-6 -2,-7 -1,1 -1,-1 -1,6 -4,-1 -10,-7 -6,-12l3 0zm-28 -3l0 38 32 19 32 -19 1 -38c-5,-1 -31,-18 -33,-18 -2,0 -26,17 -32,18z"/>
  <path class="fil0" d="M600 260c0,3 -1,6 2,7 2,-2 1,-4 1,-7 4,2 10,7 6,13l-3 0c-1,3 -1,5 -4,5 -4,1 -5,-2 -5,-5 -9,0 -4,-10 3,-13zm-18 -8c0,-9 13,-3 16,3l-11 0 0 3 11 0c-3,7 -18,11 -16,2 -8,0 -9,-8 0,-8zm23 3c5,-8 18,-11 16,-3 5,1 8,2 6,8l-6 1c0,5 -4,5 -8,4 -3,-1 -6,-5 -8,-7 4,0 8,0 11,-1l0 -1c-3,-2 -7,-1 -11,-1zm-8 -15c1,-7 7,-8 9,-1 9,1 2,12 -3,13 0,-3 1,-4 -1,-6 -3,1 -2,3 -2,7 -4,-3 -10,-8 -6,-13l3 0zm-28 -3l0 38 32 19 33 -19 0 -38c-5,-2 -31,-18 -32,-18 -3,0 -27,17 -33,18z"/>
  <path class="fil0" d="M600 89c0,3 -1,6 2,7 2,-2 1,-4 1,-7 4,2 10,8 6,13l-3 0c-1,3 -1,5 -4,6 -4,0 -5,-3 -5,-6 -9,0 -4,-10 3,-13zm-18 -8c0,-9 13,-3 16,3l-11 0 0 3 11 0c-3,7 -18,11 -16,2 -8,0 -9,-8 0,-8zm23 3c5,-8 18,-11 16,-3 5,1 8,2 6,8l-6 1c1,8 -12,4 -16,-3 4,0 8,1 11,-1l0 -1c-3,-2 -7,-1 -11,-1zm-8 -15c1,-7 7,-8 9,0 9,0 2,11 -3,13 0,-4 1,-5 -1,-7 -3,1 -2,3 -2,7 -4,-3 -10,-7 -6,-13l3 0zm-28 -2l0 37 32 19 33 -19 0 -37c-5,-2 -31,-19 -32,-19 -3,0 -27,17 -33,19z"/>
  <path class="fil0" d="M5 84c3,-8 18,-11 15,-3 5,1 8,2 6,8l-6 1c1,8 -12,4 -15,-3 3,0 8,1 10,-1l0 -1c-2,-2 -7,-1 -10,-1zm-5 -21c5,1 5,1 5,6 10,0 2,11 -3,13l0 -7 -2 0 0 21 2 -1 0 -6c5,2 10,8 6,13l-3 0c-1,4 -1,5 -5,6l0 15 33 -19 0 -37 -33 -19 0 15z"/>
  <path class="fil0" d="M20 252c5,1 8,2 6,8l-6 1c1,8 -12,4 -15,-3 3,0 8,1 10,-1l0 -1c-2,-2 -7,-1 -10,-1 3,-9 18,-10 15,-3zm-20 -18c5,0 5,1 5,5 10,1 3,12 -3,14l0 -7 -2 0 0 21 2 -1 0 -6c5,2 10,8 6,13l-3 0c-1,4 -1,5 -5,6l0 15 33 -19 0 -38 -33 -18 0 15z"/>
  <path class="fil0" d="M682 252c0,-9 13,-4 16,3l-11 0 0 3 11 0c-2,3 -9,12 -16,5l0 -3c-5,0 -7,-1 -6,-7l6 -1zm20 41l0 -14c-4,-1 -4,-2 -5,-6 -7,0 -6,-8 3,-13l0 6 2 1 0 -21 -2 0 0 7c-7,-3 -11,-16 -2,-13 0,-4 0,-5 4,-6l0 -15 -33 18 0 38 33 18z"/>
  <path class="fil0" d="M682 81c0,-9 13,-3 16,3l-11 0 0 3 11 0c-2,3 -9,12 -16,5l0 -3c-5,0 -7,-1 -6,-7l6 -1zm20 42l0 -15c-4,-1 -4,-1 -5,-6 -7,0 -6,-8 3,-13l0 6 2 1 0 -21 -2 0 0 7c-7,-3 -11,-16 -2,-13 0,-4 0,-5 4,-6l0 -15 -33 18 0 38 33 19z"/>
  <path class="fil0" d="M344 325l3 0c1,-7 7,-8 9,-1 12,5 -2,14 -3,14 0,-3 1,-5 -2,-7 -2,2 -1,4 -1,7 -2,0 -11,-6 -6,-13zm-25 17l6 0 1 -4 6 -1c-1,-4 5,-5 8,-4 3,2 6,5 7,7l-10 0 0 2 29 0 -1 -2 -10 0c3,-5 11,-11 16,-5l0 3c3,0 5,0 6,4l6 0 0 -19c-4,-2 -31,-18 -32,-18 -1,0 -27,16 -32,18l0 19z"/>
  <path class="fil0" d="M648 325c0,-7 7,-8 8,-1l2 1c0,0 5,2 2,7 -2,3 -4,5 -7,6 0,-3 1,-5 -1,-7 -3,1 -2,3 -2,7 -4,-2 -10,-7 -6,-13l4 0zm-29 17l7 0c0,-5 2,-5 6,-5 0,-9 13,-2 16,3l-10 0 -1 2 29 0 0 -2 -11 0c5,-8 18,-11 16,-2 4,0 5,0 6,4l7 0 0 -19 -32 -18 -33 18 0 19z"/>
  <path class="fil0" d="M444 325l3 0c1,-3 1,-5 4,-5 4,0 4,2 5,5 10,0 2,11 -3,13 0,-4 1,-6 -2,-7 -2,2 -1,4 -1,7 -5,-2 -10,-7 -6,-13zm-25 17l6 0 1 -3 6 -2c0,-9 12,-3 15,3l-10 0 0 2 29 0 0 -2 -11 0c4,-7 18,-11 16,-2 3,0 5,0 6,4l7 0 0 -19 -33 -18 -32 18 0 19z"/>
  <path class="fil0" d="M247 325c0,-7 7,-8 9,-1 0,0 0,0 0,1 8,3 3,9 -3,13 -1,-3 0,-5 -2,-7 -2,2 -1,4 -1,7 -5,-2 -10,-7 -7,-13l4 0zm-28 17l6 0c0,-5 2,-5 6,-5 0,-9 14,-2 16,3l-10 0 -1 2 30 0 -1 -2 -10 0c4,-8 18,-11 15,-2 4,0 6,0 7,4l6 0 0 -19 -32 -18 -32 18 0 19z"/>
  <path class="fil0" d="M46 18c0,-1 -7,-2 -3,-8 1,-2 4,-5 6,-6 0,3 -1,6 2,7 2,-3 1,-4 1,-7 3,1 5,3 6,5 3,3 2,5 0,8l-3 0c-1,7 -7,7 -9,1zm37 -18l-6 0 -1 3 -6 2c2,7 -12,4 -15,-3l10 -1 0 -1 -29 0 1 1 10 1c-5,8 -18,10 -16,2 -3,0 -5,0 -6,-4l-6 0 0 19 32 18 32 -18 0 -19z"/>
  <path class="fil0" d="M246 17c-1,0 -3,0 -4,-2 -2,-5 5,-10 8,-11 0,3 -1,5 1,6 2,-1 2,-3 2,-6 7,2 11,14 2,13 0,7 -7,7 -9,0zm37 -17l-6 0c0,4 -2,4 -6,5 0,9 -13,3 -16,-4l10 1 1 -2 -30 0 1 1 10 0c-4,9 -17,12 -15,3 -4,0 -6,0 -7,-4l-6 0 0 19 32 18 32 -18 0 -19z"/>
  <path class="fil0" d="M444 17c-5,-4 1,-11 6,-13 0,3 -1,5 2,7 1,-3 1,-4 1,-7 2,1 4,3 6,5 2,3 2,5 0,8l-4 0c0,3 0,5 -4,5 -3,0 -4,-2 -4,-4l-3 -1zm40 -17l-7 0 0 3 -6 2c1,7 -12,4 -16,-3l11 -1 0 -1 -29 0 0 1 11 1c-5,8 -18,10 -16,2 -4,0 -6,0 -7,-4l-6 0 0 19 32 18 32 -18 1 -19z"/>
  <path class="fil0" d="M544 325l3 0c1,-7 8,-8 9,-1 2,1 3,1 4,3 1,1 1,3 0,5 -1,2 -4,5 -7,6 0,-3 1,-5 -1,-7 -3,1 -2,4 -2,7 -4,-1 -10,-8 -6,-13zm-25 17l7 0c0,-5 2,-4 6,-5 -2,-7 11,-5 16,3l-11 0 0 2 29 0 0 -2 -11 0c5,-8 18,-10 16,-2 4,0 6,0 6,4l7 0 0 -19 -33 -18 -32 18 0 19z"/>
  <path class="fil0" d="M647 17c-1,0 -3,0 -4,-2 -2,-5 4,-10 7,-11 0,3 -1,6 2,6 2,-1 1,-3 1,-6 7,2 12,14 3,13 -1,7 -8,7 -9,0zm37 -17l-7 0c0,4 -2,4 -6,5 1,9 -12,3 -16,-3l11 -1 0 -1 -29 0 1 1 10 0c-4,9 -18,11 -16,3 -4,0 -5,0 -6,-4l-7 0 0 19 33 18 32 -18 0 -19z"/>
  <path class="fil0" d="M352 11c1,-3 0,-4 1,-7 7,4 9,7 6,13l-4 0c0,3 0,5 -4,5 -4,0 -4,-1 -4,-5 -12,-5 2,-13 3,-13 0,3 -1,6 2,7zm31 -11l-6 0 -1 4 -5 1c1,6 -11,6 -16,-4l10 1 1 -2 -29 0 0 1 10 0c-4,10 -18,10 -15,3 -4,0 -6,0 -7,-4l-6 0 0 19c5,2 31,18 32,18 2,0 28,-16 32,-18l0 -19z"/>
  <path class="fil0" d="M43 325l4 0c0,-3 0,-5 4,-5 4,0 4,2 5,5 9,0 1,11 -4,13 0,-3 1,-7 -2,-6 -1,1 -1,0 -1,2 0,1 0,3 0,4 -4,-2 -10,-7 -6,-13zm-24 17l6 0 0 -3 6 -2c0,-9 12,-3 16,3l-11 0 0 2 29 0 -10 -2c1,-2 4,-5 6,-6 4,-2 5,-1 9,0l0 4c4,0 6,0 7,4l6 0 0 -19 -32 -18 -32 18 0 19z"/>
  <path class="fil0" d="M146 17c-7,0 -6,-7 3,-13 0,3 0,4 1,6l1 0c2,-1 1,-3 1,-6 2,1 11,6 7,13l-4 0c-1,7 -7,8 -9,0zm37 -17l-6 0c0,5 -3,4 -6,5 1,6 -11,6 -16,-3l11 -2 -30 0 1 1 10 1c-4,8 -18,10 -15,2l-6 -1 -1 -3 -6 0 0 19 32 18 32 -18 0 -19z"/>
  <path class="fil0" d="M552 10c2,-2 1,-3 1,-6 4,2 10,7 6,13l-4 0c0,7 -6,8 -8,0 -10,0 -2,-11 3,-13 0,3 -1,6 2,6zm32 -10l-7 0c0,5 -2,4 -6,5 1,4 -5,5 -8,4 -3,-2 -6,-5 -8,-7l11 -2 -29 0 0 1 11 1c-5,8 -19,10 -16,2 -4,0 -6,0 -6,-4l-7 0 0 19 32 18 33 -18 0 -19z"/>
  <path class="fil0" d="M143 325l4 0c0,-7 7,-8 8,-1 2,1 3,1 4,3 3,4 -4,10 -7,11 0,-3 1,-5 -1,-6l-1 0c-1,2 -1,3 -1,6 -1,0 -11,-6 -6,-13zm-24 17l6 0c0,-5 2,-4 6,-5 -1,-7 12,-4 16,3l-10 0 -1 2 30 0 -11 -2c4,-8 17,-10 15,-2 4,0 6,0 7,4l6 0 0 -19 -32 -18 -32 18 0 19z"/>
  <path class="fil0" d="M501 40l40 23 0 45 -40 23 -39 -23 0 -45 39 -23zm-42 21l0 49c3,2 42,24 42,24 1,0 40,-22 43,-24l0 -49c-3,-2 -42,-25 -43,-25 -1,0 -39,23 -42,25z"/>
  <path class="fil0" d="M501 211l40 23 0 45 -40 23 -39 -23 0 -45 39 -23zm-42 21l0 49c3,2 42,24 42,24 1,0 40,-22 43,-24l0 -49c-3,-2 -42,-25 -43,-25 -1,0 -39,23 -42,25z"/>
  <path class="fil0" d="M101 211l39 23 0 45 -39 23 -39 -23 0 -45 39 -23zm-43 70c3,2 42,24 43,24 1,0 40,-22 42,-24l0 -49c-2,-2 -41,-25 -42,-25 -1,0 -40,23 -43,25l0 49z"/>
  <path class="fil0" d="M101 40l39 23 0 45 -39 23 -39 -23 0 -45 39 -23zm-43 70c3,2 42,24 43,24 1,0 40,-22 42,-24l0 -49c-2,-2 -41,-25 -42,-25 -1,0 -40,23 -43,25l0 49z"/>
  <path class="fil0" d="M212 148l39 -23 39 23 0 46 -39 23 -39 -23 0 -46zm-3 -2l-1 49 43 25 42 -24 1 -50c-3,-2 -42,-24 -43,-24 -1,0 -40,22 -42,24z"/>
  <path class="fil0" d="M51 125l39 23 0 46 -39 23 -39 -23 -1 -46 40 -23zm-43 21l0 49 43 25 42 -24 0 -50c-2,-2 -41,-24 -42,-24 -1,0 -40,22 -43,24z"/>
  <path class="fil0" d="M412 148l39 -23 40 23 0 46 -40 23 -39 -23 0 -46zm-3 -2l0 49 42 25 43 -24 0 -50c-3,-2 -42,-24 -43,-24 -1,0 -40,22 -42,24z"/>
  <path class="fil0" d="M512 148l39 -23 40 23 0 46 -39 23 -40 -23 0 -46zm-3 -1l0 48 42 25 43 -24 0 -50c-3,-2 -42,-24 -43,-24 0,0 -40,22 -42,25z"/>
  <path class="fil0" d="M151 125l39 23 0 46 -39 23 -39 -23 0 -46 39 -23zm-43 71l43 24 42 -25 0 -48c-2,-3 -41,-25 -42,-25 -1,0 -40,23 -43,25l0 49z"/>
  <path class="fil0" d="M362 234l39 -23 39 22 0 46 -39 23 -39 -23 0 -45zm-3 -2l0 49 42 25 43 -25 0 -49 -43 -25 -42 25z"/>
  <path class="fil0" d="M362 63l39 -23 39 23 0 45 -39 23 -39 -23 0 -45zm-3 -2l0 49 42 25 43 -25 0 -49 -43 -25 -42 25z"/>
  <path class="fil0" d="M351 125l39 23 0 46 -39 23 -39 -23 0 -46 39 -23zm-42 71l42 24 43 -25 0 -49 -43 -24 -42 24 0 50z"/>
  <path class="fil0" d="M652 125l39 23 0 46 -39 23 -40 -23 0 -46 40 -23zm-43 21l0 49 43 25 42 -24 0 -50 -42 -24 -43 24z"/>
  <path class="fil0" d="M562 234c5,-3 37,-22 41,-23l38 23 0 45 -39 23c-3,-1 -35,-20 -39,-23l-1 -45zm-3 47l43 25 42 -25 0 -49c-3,-2 -42,-25 -43,-25 0,0 -39,23 -42,25l0 49z"/>
  <path class="fil0" d="M562 63c5,-3 37,-22 41,-23l38 23 0 45 -39 23c-3,-1 -35,-20 -39,-23l-1 -45zm-3 -2l0 49 42 25 43 -25 0 -49c-3,-2 -42,-25 -43,-25 0,0 -39,23 -42,25z"/>
  <path class="fil0" d="M262 63c4,-3 35,-21 39,-23l39 23 0 45 -39 23 -39 -23 0 -45zm-3 47l42 25 43 -25 0 -49 -43 -25 -42 25 0 49z"/>
  <path class="fil0" d="M162 234c4,-4 37,-22 40,-23l38 23 0 45 -38 23c-3,-1 -36,-20 -40,-23l0 -45zm-3 -2l-1 49 43 25 42 -25 1 -49c-3,-2 -42,-25 -43,-25 -1,0 -40,23 -42,25z"/>
  <path class="fil0" d="M162 63c4,-3 37,-22 40,-23l38 23 0 45 -38 23c-3,-1 -36,-20 -40,-23l0 -45zm-4 47l43 25 43 -25 -1 -49 -42 -25 -43 25 0 49z"/>
  <path class="fil0" d="M262 234c4,-4 35,-22 39,-23l39 23 0 45 -39 23c-5,-2 -14,-8 -20,-11 -5,-4 -14,-8 -19,-12l0 -45zm-3 47l42 25 43 -25 0 -49 -43 -25 -42 25 0 49z"/>
  <path class="fil0" d="M509 342l3 0 0 -23 39 -23 40 23 0 23 3 0 0 -25c-3,-2 -42,-24 -43,-24 0,0 -40,22 -42,24l0 25z"/>
  <path class="fil0" d="M108 342l4 0 0 -23 39 -23 39 23 0 23 3 0 0 -25c-2,-2 -41,-24 -42,-24 -1,0 -40,22 -43,24l0 25z"/>
  <polygon class="fil0" points="702,135 702,131 662,108 662,63 702,40 702,36 659,61 659,110 "/>
  <polygon class="fil0" points="702,305 702,302 662,279 662,234 702,211 702,207 659,232 659,281 "/>
  <polygon class="fil0" points="309,342 312,342 312,319 351,296 390,319 390,342 394,342 394,317 351,293 309,317 "/>
  <polygon class="fil0" points="409,342 412,342 412,319 451,296 491,319 491,342 494,342 494,317 451,293 409,317 "/>
  <polygon class="fil0" points="0,211 40,233 40,279 0,302 0,305 43,281 43,232 0,207 "/>
  <polygon class="fil0" points="93,0 90,0 90,23 51,46 12,23 12,0 8,0 8,24 51,49 93,25 "/>
  <polygon class="fil0" points="394,0 390,0 390,23 351,46 312,23 312,0 309,0 309,24 351,49 394,25 "/>
  <polygon class="fil0" points="208,342 212,342 212,319 251,296 290,319 290,342 294,342 294,317 251,293 209,317 "/>
  <polygon class="fil0" points="494,0 491,0 491,23 451,46 412,23 412,0 409,0 409,24 451,49 494,25 "/>
  <polygon class="fil0" points="594,0 591,0 591,23 552,46 512,23 512,0 509,0 509,25 552,49 594,24 "/>
  <polygon class="fil0" points="0,40 40,63 40,108 0,131 0,135 43,110 43,61 0,36 "/>
  <polygon class="fil0" points="694,0 691,0 691,23 652,46 612,23 612,0 609,0 609,24 652,49 694,25 "/>
  <polygon class="fil0" points="609,342 612,342 612,319 652,296 691,319 691,342 694,342 694,317 652,293 609,317 "/>
  <polygon class="fil0" points="294,0 290,0 290,23 251,46 212,23 212,0 208,0 208,24 251,49 293,25 "/>
  <polygon class="fil0" points="8,342 12,342 12,319 51,296 90,319 90,342 93,342 93,317 51,293 8,317 "/>
  <polygon class="fil0" points="193,0 190,0 190,23 151,46 112,23 112,0 108,0 108,24 151,49 193,25 "/>
 </g>
</svg>
